<?xml version="1.0" encoding="UTF-8" standalone="no"?>
<!DOCTYPE svg PUBLIC "-//W3C//DTD SVG 1.1//EN" "http://www.w3.org/Graphics/SVG/1.1/DTD/svg11.dtd">
<svg xmlns="http://www.w3.org/2000/svg" version="1.1" viewBox="0.00 0.00 512.00 512.00">
<g stroke-width="2.00" fill="none" stroke-linecap="butt">
<path stroke="#808080" vector-effect="non-scaling-stroke" d="
  M 343.68 44.31
  C 273.85 44.12 204.02 44.00 134.19 43.43
  Q 133.63 43.42 133.35 43.91
  C 131.29 47.59 129.32 51.95 127.48 55.05
  Q 119.54 68.42 111.83 81.93
  C 108.20 88.30 103.26 95.97 99.31 103.19
  Q 97.13 107.16 94.30 111.58
  C 90.68 117.25 86.41 125.25 84.21 129.06
  Q 63.81 164.21 43.31 199.31
  C 41.42 202.56 39.48 205.15 37.97 208.50
  C 34.22 216.83 29.37 223.04 24.25 233.23
  C 23.12 235.47 20.89 237.13 19.73 239.52
  Q 15.84 247.52 11.07 254.96
  Q 10.80 255.38 11.09 255.79
  C 15.15 261.43 17.49 267.21 20.91 272.90
  Q 26.86 282.78 27.37 283.69
  Q 43.99 313.34 61.11 342.70
  C 75.72 367.74 89.63 393.16 104.37 418.14
  C 108.16 424.55 114.12 435.52 119.53 443.90
  Q 120.45 445.33 121.38 447.88
  C 122.57 451.17 125.68 455.13 126.73 456.93
  Q 128.69 460.29 131.06 463.37
  Q 131.35 463.76 131.40 464.24
  L 131.71 467.19
  A 0.65 0.65 0.0 0 0 132.41 467.78
  Q 133.75 467.69 136.75 467.69
  Q 189.98 467.70 370.41 468.57
  C 372.72 468.59 375.25 468.94 377.71 469.03
  A 1.06 1.05 19.1 0 0 378.60 468.60
  Q 379.76 466.99 380.73 463.99
  C 382.27 459.21 387.71 452.40 390.43 447.44
  Q 394.75 439.53 400.74 429.52
  Q 420.14 397.09 442.73 357.37
  C 451.34 342.25 460.47 327.04 469.17 311.76
  C 470.63 309.19 472.93 305.88 474.52 302.74
  C 478.21 295.45 482.91 288.91 486.46 281.48
  C 488.34 277.54 491.47 274.53 493.47 270.43
  Q 496.76 263.63 500.91 257.33
  Q 501.17 256.92 500.91 256.52
  C 496.46 249.61 493.38 242.13 488.75 235.44
  C 484.49 229.28 481.54 222.04 477.39 215.65
  C 475.38 212.56 473.94 208.89 471.89 205.34
  C 451.24 169.65 430.86 133.81 410.25 98.09
  C 407.39 93.13 401.73 84.24 398.02 76.96
  C 395.78 72.57 391.10 68.36 390.71 63.55
  A 1.66 1.64 -65.9 0 0 390.40 62.72
  Q 384.13 54.33 379.90 44.74
  Q 379.65 44.18 379.04 44.21
  C 367.21 44.69 352.73 44.33 343.68 44.31"
/>
<path stroke="#808080" vector-effect="non-scaling-stroke" d="
  M 374.25 51.71
  L 140.01 50.88
  Q 139.02 50.88 138.49 51.71
  C 130.69 63.95 123.97 76.96 116.45 89.41
  C 112.79 95.44 108.76 103.02 104.52 109.61
  Q 101.45 114.36 98.22 120.36
  C 95.26 125.87 91.56 130.97 88.76 136.57
  Q 87.19 139.72 85.76 142.11
  C 78.18 154.81 70.92 167.69 63.29 180.36
  C 59.39 186.84 56.48 192.74 52.00 199.97
  Q 50.20 202.87 46.69 209.49
  C 44.03 214.51 40.60 219.14 38.10 224.05
  C 35.81 228.56 33.82 232.56 30.42 236.47
  Q 27.55 239.78 27.12 244.40
  Q 27.07 244.91 26.67 245.23
  Q 24.88 246.70 23.74 248.72
  Q 23.26 249.56 24.18 249.23
  Q 31.58 246.55 39.35 245.80
  Q 44.24 245.32 47.52 244.41
  Q 69.21 238.42 76.51 236.51
  C 81.04 235.32 85.72 235.63 90.15 234.44
  Q 104.74 230.51 119.31 226.50
  Q 122.27 225.69 126.83 225.30
  Q 133.06 224.76 139.18 222.77
  A 1.87 1.86 80.8 0 1 141.62 224.53
  L 141.65 229.04
  Q 141.65 229.54 141.17 229.66
  C 133.47 231.62 124.08 235.19 116.26 235.49
  Q 113.21 235.60 109.00 236.70
  Q 93.54 240.71 78.16 245.03
  C 74.24 246.13 70.27 245.60 66.25 246.67
  Q 51.45 250.60 36.70 254.74
  C 31.76 256.13 26.69 256.21 21.55 256.93
  A 0.36 0.35 -17.6 0 0 21.28 257.44
  Q 23.05 260.85 25.02 264.13
  C 26.97 267.40 28.39 271.69 30.98 275.29
  C 35.05 280.94 39.02 288.86 41.68 293.52
  Q 76.00 353.59 110.42 413.61
  C 113.55 419.08 119.00 427.75 122.86 435.11
  C 125.42 439.97 129.17 444.74 131.74 450.78
  Q 133.46 454.82 137.45 460.04
  A 0.99 0.99 0.0 0 0 138.21 460.42
  L 372.03 461.19
  A 2.23 2.22 -76.0 0 0 374.02 459.99
  C 375.94 456.31 379.62 452.33 380.70 448.36
  C 381.69 444.67 384.71 441.69 386.05 439.33
  C 397.21 419.74 405.15 407.03 412.57 394.09
  C 416.29 387.60 419.56 382.52 422.73 376.61
  Q 425.57 371.30 426.96 368.93
  Q 444.35 339.24 461.59 309.45
  C 463.37 306.38 465.74 301.52 468.22 297.75
  C 473.53 289.67 477.44 281.19 483.03 273.29
  Q 484.68 270.95 484.86 268.09
  Q 484.89 267.56 485.27 267.18
  Q 488.63 263.81 490.37 259.36
  Q 490.52 258.96 490.12 258.81
  Q 484.61 256.81 478.86 256.13
  C 466.66 254.67 454.11 250.40 442.33 246.89
  C 437.40 245.42 432.41 245.79 427.34 244.39
  Q 413.48 240.56 399.65 236.63
  Q 396.75 235.81 393.24 235.62
  C 385.87 235.22 378.22 232.34 371.09 230.34
  Q 370.40 230.14 370.44 229.42
  L 370.67 224.61
  A 0.94 0.94 0.0 0 1 371.61 223.71
  Q 375.18 223.71 378.74 224.58
  C 382.35 225.47 385.91 225.12 389.50 226.16
  Q 403.19 230.11 416.94 233.82
  C 422.95 235.43 429.03 235.63 435.05 237.35
  C 445.86 240.45 456.27 243.78 467.65 245.67
  Q 478.08 247.41 487.95 250.91
  A 0.44 0.44 0.0 0 0 488.46 250.25
  Q 485.88 246.42 484.15 242.15
  C 482.56 238.24 479.69 235.15 477.74 231.64
  Q 466.42 211.32 454.77 191.18
  C 453.60 189.15 452.59 186.39 451.12 184.12
  Q 448.28 179.73 448.21 179.62
  Q 432.20 151.77 416.29 123.87
  C 407.24 107.98 397.38 91.81 388.48 75.40
  C 386.42 71.60 382.92 67.71 380.97 63.14
  C 379.10 58.73 377.18 55.85 375.01 52.18
  Q 374.74 51.71 374.25 51.71"
/>
<path stroke="#dd8688" vector-effect="non-scaling-stroke" d="
  M 187.81 190.94
  C 181.95 186.03 176.50 185.48 169.54 188.55
  C 156.28 194.39 153.23 200.51 149.53 213.77
  C 146.83 223.50 148.79 240.02 158.77 245.51
  C 170.06 251.72 179.95 239.17 184.56 230.66
  C 186.62 226.88 189.03 223.64 190.02 219.48
  Q 192.23 210.11 192.40 200.52
  Q 192.50 194.86 187.81 190.94"
/>
<path stroke="#dd8688" vector-effect="non-scaling-stroke" d="
  M 330.03 199.05
  C 322.94 211.76 318.00 224.72 326.91 238.25
  C 328.53 240.70 329.52 242.41 330.76 244.62
  A 1.28 1.27 83.8 0 0 331.50 245.22
  C 338.64 247.40 341.59 247.67 348.55 244.63
  A 1.50 1.48 -86.7 0 0 349.27 243.98
  C 352.59 238.12 359.29 234.92 360.34 228.59
  C 360.79 225.91 362.72 224.12 363.46 221.61
  C 366.27 212.02 370.03 196.56 360.68 189.46
  C 352.20 183.02 341.45 188.97 334.29 194.14
  Q 331.74 195.97 330.03 199.05"
/>
<path stroke="#808080" vector-effect="non-scaling-stroke" d="
  M 317.3408 219.0868
  A 3.88 3.88 0.0 0 0 313.4675 215.2000
  L 198.8877 215.0000
  A 3.88 3.88 0.0 0 0 195.0009 218.8732
  L 194.9992 219.8532
  A 3.88 3.88 0.0 0 0 198.8725 223.7400
  L 313.4523 223.9400
  A 3.88 3.88 0.0 0 0 317.3391 220.0668
  L 317.3408 219.0868"
/>
<path stroke="#808080" vector-effect="non-scaling-stroke" d="
  M 361.1810 433.6488
  A 3.17 3.17 0.0 0 0 358.0221 430.4678
  L 153.0433 429.7523
  A 3.17 3.17 0.0 0 0 149.8623 432.9112
  L 149.8590 433.8512
  A 3.17 3.17 0.0 0 0 153.0179 437.0322
  L 357.9967 437.7477
  A 3.17 3.17 0.0 0 0 361.1777 434.5888
  L 361.1810 433.6488"
/>
<path stroke="#dd8688" vector-effect="non-scaling-stroke" d="
  M 184.95 194.05
  C 179.35 189.83 166.96 191.63 162.95 197.42
  Q 159.99 201.71 157.07 206.01
  C 149.43 217.30 149.43 234.25 161.83 242.39
  C 166.31 245.33 171.41 241.88 173.30 237.58
  C 173.93 236.15 177.08 235.19 178.31 233.82
  C 182.04 229.67 184.04 221.06 185.76 217.01
  Q 190.68 205.41 185.25 194.42
  A 0.99 0.93 8.0 0 0 184.95 194.05"
/>
<path stroke="#dd8688" vector-effect="non-scaling-stroke" d="
  M 342.45 193.54
  C 338.81 195.00 331.65 204.29 330.27 207.94
  Q 325.58 220.35 329.52 233.73
  C 331.42 240.20 338.27 246.70 344.97 241.17
  C 351.53 235.75 358.77 226.43 360.45 217.68
  C 362.11 208.98 363.30 202.77 359.51 193.60
  Q 359.32 193.15 358.87 193.00
  Q 350.51 190.30 342.45 193.54"
/>
</g>
<path fill="#ffffff" d="
  M 249.58 0.00
  L 262.80 0.00
  C 399.27 4.69 508.34 112.64 512.00 250.57
  L 512.00 261.58
  Q 508.66 355.31 448.37 424.76
  C 401.51 478.75 333.22 509.96 261.93 512.00
  L 250.20 512.00
  C 112.58 507.99 4.68 399.58 0.00 262.42
  L 0.00 249.19
  C 5.23 112.51 111.93 4.37 249.58 0.00
  Z
  M 343.68 44.31
  C 273.85 44.12 204.02 44.00 134.19 43.43
  Q 133.63 43.42 133.35 43.91
  C 131.29 47.59 129.32 51.95 127.48 55.05
  Q 119.54 68.42 111.83 81.93
  C 108.20 88.30 103.26 95.97 99.31 103.19
  Q 97.13 107.16 94.30 111.58
  C 90.68 117.25 86.41 125.25 84.21 129.06
  Q 63.81 164.21 43.31 199.31
  C 41.42 202.56 39.48 205.15 37.97 208.50
  C 34.22 216.83 29.37 223.04 24.25 233.23
  C 23.12 235.47 20.89 237.13 19.73 239.52
  Q 15.84 247.52 11.07 254.96
  Q 10.80 255.38 11.09 255.79
  C 15.15 261.43 17.49 267.21 20.91 272.90
  Q 26.86 282.78 27.37 283.69
  Q 43.99 313.34 61.11 342.70
  C 75.72 367.74 89.63 393.16 104.37 418.14
  C 108.16 424.55 114.12 435.52 119.53 443.90
  Q 120.45 445.33 121.38 447.88
  C 122.57 451.17 125.68 455.13 126.73 456.93
  Q 128.69 460.29 131.06 463.37
  Q 131.35 463.76 131.40 464.24
  L 131.71 467.19
  A 0.65 0.65 0.0 0 0 132.41 467.78
  Q 133.75 467.69 136.75 467.69
  Q 189.98 467.70 370.41 468.57
  C 372.72 468.59 375.25 468.94 377.71 469.03
  A 1.06 1.05 19.1 0 0 378.60 468.60
  Q 379.76 466.99 380.73 463.99
  C 382.27 459.21 387.71 452.40 390.43 447.44
  Q 394.75 439.53 400.74 429.52
  Q 420.14 397.09 442.73 357.37
  C 451.34 342.25 460.47 327.04 469.17 311.76
  C 470.63 309.19 472.93 305.88 474.52 302.74
  C 478.21 295.45 482.91 288.91 486.46 281.48
  C 488.34 277.54 491.47 274.53 493.47 270.43
  Q 496.76 263.63 500.91 257.33
  Q 501.17 256.92 500.91 256.52
  C 496.46 249.61 493.38 242.13 488.75 235.44
  C 484.49 229.28 481.54 222.04 477.39 215.65
  C 475.38 212.56 473.94 208.89 471.89 205.34
  C 451.24 169.65 430.86 133.81 410.25 98.09
  C 407.39 93.13 401.73 84.24 398.02 76.96
  C 395.78 72.57 391.10 68.36 390.71 63.55
  A 1.66 1.64 -65.9 0 0 390.40 62.72
  Q 384.13 54.33 379.90 44.74
  Q 379.65 44.18 379.04 44.21
  C 367.21 44.69 352.73 44.33 343.68 44.31
  Z"
/>
<path fill="#000000" d="
  M 134.19 43.43
  C 204.02 44.00 273.85 44.12 343.68 44.31
  C 352.73 44.33 367.21 44.69 379.04 44.21
  Q 379.65 44.18 379.90 44.74
  Q 384.13 54.33 390.40 62.72
  A 1.66 1.64 -65.9 0 1 390.71 63.55
  C 391.10 68.36 395.78 72.57 398.02 76.96
  C 401.73 84.24 407.39 93.13 410.25 98.09
  C 430.86 133.81 451.24 169.65 471.89 205.34
  C 473.94 208.89 475.38 212.56 477.39 215.65
  C 481.54 222.04 484.49 229.28 488.75 235.44
  C 493.38 242.13 496.46 249.61 500.91 256.52
  Q 501.17 256.92 500.91 257.33
  Q 496.76 263.63 493.47 270.43
  C 491.47 274.53 488.34 277.54 486.46 281.48
  C 482.91 288.91 478.21 295.45 474.52 302.74
  C 472.93 305.88 470.63 309.19 469.17 311.76
  C 460.47 327.04 451.34 342.25 442.73 357.37
  Q 420.14 397.09 400.74 429.52
  Q 394.75 439.53 390.43 447.44
  C 387.71 452.40 382.27 459.21 380.73 463.99
  Q 379.76 466.99 378.60 468.60
  A 1.06 1.05 19.1 0 1 377.71 469.03
  C 375.25 468.94 372.72 468.59 370.41 468.57
  Q 189.98 467.70 136.75 467.69
  Q 133.75 467.69 132.41 467.78
  A 0.65 0.65 0.0 0 1 131.71 467.19
  L 131.40 464.24
  Q 131.35 463.76 131.06 463.37
  Q 128.69 460.29 126.73 456.93
  C 125.68 455.13 122.57 451.17 121.38 447.88
  Q 120.45 445.33 119.53 443.90
  C 114.12 435.52 108.16 424.55 104.37 418.14
  C 89.63 393.16 75.72 367.74 61.11 342.70
  Q 43.99 313.34 27.37 283.69
  Q 26.86 282.78 20.91 272.90
  C 17.49 267.21 15.15 261.43 11.09 255.79
  Q 10.80 255.38 11.07 254.96
  Q 15.84 247.52 19.73 239.52
  C 20.89 237.13 23.12 235.47 24.25 233.23
  C 29.37 223.04 34.22 216.83 37.97 208.50
  C 39.48 205.15 41.42 202.56 43.31 199.31
  Q 63.81 164.21 84.21 129.06
  C 86.41 125.25 90.68 117.25 94.30 111.58
  Q 97.13 107.16 99.31 103.19
  C 103.26 95.97 108.20 88.30 111.83 81.93
  Q 119.54 68.42 127.48 55.05
  C 129.32 51.95 131.29 47.59 133.35 43.91
  Q 133.63 43.42 134.19 43.43
  Z
  M 374.25 51.71
  L 140.01 50.88
  Q 139.02 50.88 138.49 51.71
  C 130.69 63.95 123.97 76.96 116.45 89.41
  C 112.79 95.44 108.76 103.02 104.52 109.61
  Q 101.45 114.36 98.22 120.36
  C 95.26 125.87 91.56 130.97 88.76 136.57
  Q 87.19 139.72 85.76 142.11
  C 78.18 154.81 70.92 167.69 63.29 180.36
  C 59.39 186.84 56.48 192.74 52.00 199.97
  Q 50.20 202.87 46.69 209.49
  C 44.03 214.51 40.60 219.14 38.10 224.05
  C 35.81 228.56 33.82 232.56 30.42 236.47
  Q 27.55 239.78 27.12 244.40
  Q 27.07 244.91 26.67 245.23
  Q 24.88 246.70 23.74 248.72
  Q 23.26 249.56 24.18 249.23
  Q 31.58 246.55 39.35 245.80
  Q 44.24 245.32 47.52 244.41
  Q 69.21 238.42 76.51 236.51
  C 81.04 235.32 85.72 235.63 90.15 234.44
  Q 104.74 230.51 119.31 226.50
  Q 122.27 225.69 126.83 225.30
  Q 133.06 224.76 139.18 222.77
  A 1.87 1.86 80.8 0 1 141.62 224.53
  L 141.65 229.04
  Q 141.65 229.54 141.17 229.66
  C 133.47 231.62 124.08 235.19 116.26 235.49
  Q 113.21 235.60 109.00 236.70
  Q 93.54 240.71 78.16 245.03
  C 74.24 246.13 70.27 245.60 66.25 246.67
  Q 51.45 250.60 36.70 254.74
  C 31.76 256.13 26.69 256.21 21.55 256.93
  A 0.36 0.35 -17.6 0 0 21.28 257.44
  Q 23.05 260.85 25.02 264.13
  C 26.97 267.40 28.39 271.69 30.98 275.29
  C 35.05 280.94 39.02 288.86 41.68 293.52
  Q 76.00 353.59 110.42 413.61
  C 113.55 419.08 119.00 427.75 122.86 435.11
  C 125.42 439.97 129.17 444.74 131.74 450.78
  Q 133.46 454.82 137.45 460.04
  A 0.99 0.99 0.0 0 0 138.21 460.42
  L 372.03 461.19
  A 2.23 2.22 -76.0 0 0 374.02 459.99
  C 375.94 456.31 379.62 452.33 380.70 448.36
  C 381.69 444.67 384.71 441.69 386.05 439.33
  C 397.21 419.74 405.15 407.03 412.57 394.09
  C 416.29 387.60 419.56 382.52 422.73 376.61
  Q 425.57 371.30 426.96 368.93
  Q 444.35 339.24 461.59 309.45
  C 463.37 306.38 465.74 301.52 468.22 297.75
  C 473.53 289.67 477.44 281.19 483.03 273.29
  Q 484.68 270.95 484.86 268.09
  Q 484.89 267.56 485.27 267.18
  Q 488.63 263.81 490.37 259.36
  Q 490.52 258.96 490.12 258.81
  Q 484.61 256.81 478.86 256.13
  C 466.66 254.67 454.11 250.40 442.33 246.89
  C 437.40 245.42 432.41 245.79 427.34 244.39
  Q 413.48 240.56 399.65 236.63
  Q 396.75 235.81 393.24 235.62
  C 385.87 235.22 378.22 232.34 371.09 230.34
  Q 370.40 230.14 370.44 229.42
  L 370.67 224.61
  A 0.94 0.94 0.0 0 1 371.61 223.71
  Q 375.18 223.71 378.74 224.58
  C 382.35 225.47 385.91 225.12 389.50 226.16
  Q 403.19 230.11 416.94 233.82
  C 422.95 235.43 429.03 235.63 435.05 237.35
  C 445.86 240.45 456.27 243.78 467.65 245.67
  Q 478.08 247.41 487.95 250.91
  A 0.44 0.44 0.0 0 0 488.46 250.25
  Q 485.88 246.42 484.15 242.15
  C 482.56 238.24 479.69 235.15 477.74 231.64
  Q 466.42 211.32 454.77 191.18
  C 453.60 189.15 452.59 186.39 451.12 184.12
  Q 448.28 179.73 448.21 179.62
  Q 432.20 151.77 416.29 123.87
  C 407.24 107.98 397.38 91.81 388.48 75.40
  C 386.42 71.60 382.92 67.71 380.97 63.14
  C 379.10 58.73 377.18 55.85 375.01 52.18
  Q 374.74 51.71 374.25 51.71
  Z"
/>
<path fill="#ffffff" d="
  M 140.01 50.88
  L 374.25 51.71
  Q 374.74 51.71 375.01 52.18
  C 377.18 55.85 379.10 58.73 380.97 63.14
  C 382.92 67.71 386.42 71.60 388.48 75.40
  C 397.38 91.81 407.24 107.98 416.29 123.87
  Q 432.20 151.77 448.21 179.62
  Q 448.28 179.73 451.12 184.12
  C 452.59 186.39 453.60 189.15 454.77 191.18
  Q 466.42 211.32 477.74 231.64
  C 479.69 235.15 482.56 238.24 484.15 242.15
  Q 485.88 246.42 488.46 250.25
  A 0.44 0.44 0.0 0 1 487.95 250.91
  Q 478.08 247.41 467.65 245.67
  C 456.27 243.78 445.86 240.45 435.05 237.35
  C 429.03 235.63 422.95 235.43 416.94 233.82
  Q 403.19 230.11 389.50 226.16
  C 385.91 225.12 382.35 225.47 378.74 224.58
  Q 375.18 223.71 371.61 223.71
  A 0.94 0.94 0.0 0 0 370.67 224.61
  L 370.44 229.42
  Q 370.40 230.14 371.09 230.34
  C 378.22 232.34 385.87 235.22 393.24 235.62
  Q 396.75 235.81 399.65 236.63
  Q 413.48 240.56 427.34 244.39
  C 432.41 245.79 437.40 245.42 442.33 246.89
  C 454.11 250.40 466.66 254.67 478.86 256.13
  Q 484.61 256.81 490.12 258.81
  Q 490.52 258.96 490.37 259.36
  Q 488.63 263.81 485.27 267.18
  Q 484.89 267.56 484.86 268.09
  Q 484.68 270.95 483.03 273.29
  C 477.44 281.19 473.53 289.67 468.22 297.75
  C 465.74 301.52 463.37 306.38 461.59 309.45
  Q 444.35 339.24 426.96 368.93
  Q 425.57 371.30 422.73 376.61
  C 419.56 382.52 416.29 387.60 412.57 394.09
  C 405.15 407.03 397.21 419.74 386.05 439.33
  C 384.71 441.69 381.69 444.67 380.70 448.36
  C 379.62 452.33 375.94 456.31 374.02 459.99
  A 2.23 2.22 -76.0 0 1 372.03 461.19
  L 138.21 460.42
  A 0.99 0.99 0.0 0 1 137.45 460.04
  Q 133.46 454.82 131.74 450.78
  C 129.17 444.74 125.42 439.97 122.86 435.11
  C 119.00 427.75 113.55 419.08 110.42 413.61
  Q 76.00 353.59 41.68 293.52
  C 39.02 288.86 35.05 280.94 30.98 275.29
  C 28.39 271.69 26.97 267.40 25.02 264.13
  Q 23.05 260.85 21.28 257.44
  A 0.36 0.35 -17.6 0 1 21.55 256.93
  C 26.69 256.21 31.76 256.13 36.70 254.74
  Q 51.45 250.60 66.25 246.67
  C 70.27 245.60 74.24 246.13 78.16 245.03
  Q 93.54 240.71 109.00 236.70
  Q 113.21 235.60 116.26 235.49
  C 124.08 235.19 133.47 231.62 141.17 229.66
  Q 141.65 229.54 141.65 229.04
  L 141.62 224.53
  A 1.87 1.86 80.8 0 0 139.18 222.77
  Q 133.06 224.76 126.83 225.30
  Q 122.27 225.69 119.31 226.50
  Q 104.74 230.51 90.15 234.44
  C 85.72 235.63 81.04 235.32 76.51 236.51
  Q 69.21 238.42 47.52 244.41
  Q 44.24 245.32 39.35 245.80
  Q 31.58 246.55 24.18 249.23
  Q 23.26 249.56 23.74 248.72
  Q 24.88 246.70 26.67 245.23
  Q 27.07 244.91 27.12 244.40
  Q 27.55 239.78 30.42 236.47
  C 33.82 232.56 35.81 228.56 38.10 224.05
  C 40.60 219.14 44.03 214.51 46.69 209.49
  Q 50.20 202.87 52.00 199.97
  C 56.48 192.74 59.39 186.84 63.29 180.36
  C 70.92 167.69 78.18 154.81 85.76 142.11
  Q 87.19 139.72 88.76 136.57
  C 91.56 130.97 95.26 125.87 98.22 120.36
  Q 101.45 114.36 104.52 109.61
  C 108.76 103.02 112.79 95.44 116.45 89.41
  C 123.97 76.96 130.69 63.95 138.49 51.71
  Q 139.02 50.88 140.01 50.88
  Z
  M 187.81 190.94
  C 181.95 186.03 176.50 185.48 169.54 188.55
  C 156.28 194.39 153.23 200.51 149.53 213.77
  C 146.83 223.50 148.79 240.02 158.77 245.51
  C 170.06 251.72 179.95 239.17 184.56 230.66
  C 186.62 226.88 189.03 223.64 190.02 219.48
  Q 192.23 210.11 192.40 200.52
  Q 192.50 194.86 187.81 190.94
  Z
  M 330.03 199.05
  C 322.94 211.76 318.00 224.72 326.91 238.25
  C 328.53 240.70 329.52 242.41 330.76 244.62
  A 1.28 1.27 83.8 0 0 331.50 245.22
  C 338.64 247.40 341.59 247.67 348.55 244.63
  A 1.50 1.48 -86.7 0 0 349.27 243.98
  C 352.59 238.12 359.29 234.92 360.34 228.59
  C 360.79 225.91 362.72 224.12 363.46 221.61
  C 366.27 212.02 370.03 196.56 360.68 189.46
  C 352.20 183.02 341.45 188.97 334.29 194.14
  Q 331.74 195.97 330.03 199.05
  Z
  M 317.3408 219.0868
  A 3.88 3.88 0.0 0 0 313.4675 215.2000
  L 198.8877 215.0000
  A 3.88 3.88 0.0 0 0 195.0009 218.8732
  L 194.9992 219.8532
  A 3.88 3.88 0.0 0 0 198.8725 223.7400
  L 313.4523 223.9400
  A 3.88 3.88 0.0 0 0 317.3391 220.0668
  L 317.3408 219.0868
  Z
  M 361.1810 433.6488
  A 3.17 3.17 0.0 0 0 358.0221 430.4678
  L 153.0433 429.7523
  A 3.17 3.17 0.0 0 0 149.8623 432.9112
  L 149.8590 433.8512
  A 3.17 3.17 0.0 0 0 153.0179 437.0322
  L 357.9967 437.7477
  A 3.17 3.17 0.0 0 0 361.1777 434.5888
  L 361.1810 433.6488
  Z"
/>
<path fill="#bb0d11" d="
  M 187.81 190.94
  Q 192.50 194.86 192.40 200.52
  Q 192.23 210.11 190.02 219.48
  C 189.03 223.64 186.62 226.88 184.56 230.66
  C 179.95 239.17 170.06 251.72 158.77 245.51
  C 148.79 240.02 146.83 223.50 149.53 213.77
  C 153.23 200.51 156.28 194.39 169.54 188.55
  C 176.50 185.48 181.95 186.03 187.81 190.94
  Z
  M 184.95 194.05
  C 179.35 189.83 166.96 191.63 162.95 197.42
  Q 159.99 201.71 157.07 206.01
  C 149.43 217.30 149.43 234.25 161.83 242.39
  C 166.31 245.33 171.41 241.88 173.30 237.58
  C 173.93 236.15 177.08 235.19 178.31 233.82
  C 182.04 229.67 184.04 221.06 185.76 217.01
  Q 190.68 205.41 185.25 194.42
  A 0.99 0.93 8.0 0 0 184.95 194.05
  Z"
/>
<path fill="#bb0d11" d="
  M 334.29 194.14
  C 341.45 188.97 352.20 183.02 360.68 189.46
  C 370.03 196.56 366.27 212.02 363.46 221.61
  C 362.72 224.12 360.79 225.91 360.34 228.59
  C 359.29 234.92 352.59 238.12 349.27 243.98
  A 1.50 1.48 -86.7 0 1 348.55 244.63
  C 341.59 247.67 338.64 247.40 331.50 245.22
  A 1.28 1.27 83.8 0 1 330.76 244.62
  C 329.52 242.41 328.53 240.70 326.91 238.25
  C 318.00 224.72 322.94 211.76 330.03 199.05
  Q 331.74 195.97 334.29 194.14
  Z
  M 342.45 193.54
  C 338.81 195.00 331.65 204.29 330.27 207.94
  Q 325.58 220.35 329.52 233.73
  C 331.42 240.20 338.27 246.70 344.97 241.17
  C 351.53 235.75 358.77 226.43 360.45 217.68
  C 362.11 208.98 363.30 202.77 359.51 193.60
  Q 359.32 193.15 358.87 193.00
  Q 350.51 190.30 342.45 193.54
  Z"
/>
<path fill="#ffffff" d="
  M 184.95 194.05
  A 0.99 0.93 8.0 0 1 185.25 194.42
  Q 190.68 205.41 185.76 217.01
  C 184.04 221.06 182.04 229.67 178.31 233.82
  C 177.08 235.19 173.93 236.15 173.30 237.58
  C 171.41 241.88 166.31 245.33 161.83 242.39
  C 149.43 234.25 149.43 217.30 157.07 206.01
  Q 159.99 201.71 162.95 197.42
  C 166.96 191.63 179.35 189.83 184.95 194.05
  Z"
/>
<path fill="#ffffff" d="
  M 330.27 207.94
  C 331.65 204.29 338.81 195.00 342.45 193.54
  Q 350.51 190.30 358.87 193.00
  Q 359.32 193.15 359.51 193.60
  C 363.30 202.77 362.11 208.98 360.45 217.68
  C 358.77 226.43 351.53 235.75 344.97 241.17
  C 338.27 246.70 331.42 240.20 329.52 233.73
  Q 325.58 220.35 330.27 207.94
  Z"
/>
<rect fill="#000000" x="-61.17" y="-4.37" transform="translate(256.17,219.47) rotate(0.1)" width="122.34" height="8.74" rx="3.88"/>
<rect fill="#000000" x="-105.66" y="-3.64" transform="translate(255.52,433.75) rotate(0.2)" width="211.32" height="7.28" rx="3.17"/>
</svg>
